<svg id="SvgjsSvg1001" width="288" height="288" xmlns="http://www.w3.org/2000/svg" version="1.1" xmlns:xlink="http://www.w3.org/1999/xlink" xmlns:svgjs="http://svgjs.com/svgjs"><defs id="SvgjsDefs1002"></defs><g id="SvgjsG1008"><svg xmlns="http://www.w3.org/2000/svg" width="288" height="288" viewBox="0 0 48 48"><radialGradient id="a" cx="19.38" cy="42.035" r="44.899" gradientUnits="userSpaceOnUse"><stop offset="0" stop-color="#9f9f9f" class="stopColorfd5 svgShape"></stop><stop offset=".328" stop-color="#9f9f9f" class="stopColorff543f svgShape"></stop><stop offset=".348" stop-color="#9f9f9f" class="stopColorfc5245 svgShape"></stop><stop offset=".504" stop-color="#9f9f9f" class="stopColore64771 svgShape"></stop><stop offset=".643" stop-color="#9f9f9f" class="stopColord53e91 svgShape"></stop><stop offset=".761" stop-color="#9f9f9f" class="stopColorcc39a4 svgShape"></stop><stop offset=".841" stop-color="#9f9f9f" class="stopColorc837ab svgShape"></stop></radialGradient><path fill="url(#a)" d="M34.017,41.99l-20,0.019c-4.4,0.004-8.003-3.592-8.008-7.992l-0.019-20	c-0.004-4.4,3.592-8.003,7.992-8.008l20-0.019c4.4-0.004,8.003,3.592,8.008,7.992l0.019,20	C42.014,38.383,38.417,41.986,34.017,41.99z"></path><radialGradient id="b" cx="11.786" cy="5.54" r="29.813" gradientTransform="matrix(1 0 0 .6663 0 1.849)" gradientUnits="userSpaceOnUse"><stop offset="0" stop-color="#9f9f9f" class="stopColor4168c9 svgShape"></stop><stop offset=".999" stop-color="#9f9f9f" stop-opacity="0" class="stopColor4168c9 svgShape"></stop></radialGradient><path fill="url(#b)" d="M34.017,41.99l-20,0.019c-4.4,0.004-8.003-3.592-8.008-7.992l-0.019-20	c-0.004-4.4,3.592-8.003,7.992-8.008l20-0.019c4.4-0.004,8.003,3.592,8.008,7.992l0.019,20	C42.014,38.383,38.417,41.986,34.017,41.99z"></path><path fill="#ffffff" d="M24,31c-3.859,0-7-3.14-7-7s3.141-7,7-7s7,3.14,7,7S27.859,31,24,31z M24,19c-2.757,0-5,2.243-5,5	s2.243,5,5,5s5-2.243,5-5S26.757,19,24,19z" class="colorfff svgShape"></path><circle cx="31.5" cy="16.5" r="1.5" fill="#ffffff" class="colorfff svgShape"></circle><path fill="#ffffff" d="M30,37H18c-3.859,0-7-3.14-7-7V18c0-3.86,3.141-7,7-7h12c3.859,0,7,3.14,7,7v12	C37,33.86,33.859,37,30,37z M18,13c-2.757,0-5,2.243-5,5v12c0,2.757,2.243,5,5,5h12c2.757,0,5-2.243,5-5V18c0-2.757-2.243-5-5-5H18z" class="colorfff svgShape"></path></svg></g></svg>