<?xml version="1.0" encoding="utf-8"?>
<!-- Generator: Adobe Illustrator 21.1.0, SVG Export Plug-In . SVG Version: 6.00 Build 0)  -->
<svg version="1.1" id="Layer_1" xmlns="http://www.w3.org/2000/svg" xmlns:xlink="http://www.w3.org/1999/xlink" x="0px" y="0px"
	 viewBox="0 0 1000 1000" style="enable-background:new 0 0 1000 1000;" xml:space="preserve">
<style type="text/css">
	.st0{fill:#492F8C;}
	.st1{fill:#492F8C;stroke:#FFFFFF;stroke-width:13;stroke-miterlimit:10;}
	.st2{fill:#492F8C;stroke:#FFFFFF;stroke-width:10;stroke-miterlimit:10;}
	.st3{fill:#492F8C;stroke:#FFFFFF;stroke-width:8;stroke-miterlimit:10;}
</style>
<path class="st0" d="M632.1,174.8c37.5-33.3,66.6-82.8,68-136c-46.6-4.7-106.7,15.5-145.3,48.6c-34.5,29.3-68.2,79.1-68.4,131.4
	C537.6,230.1,594.6,208.1,632.1,174.8z"/>
<path class="st1" d="M226.9,831.6c6.4,8.3,13.1,16.2,20.1,23.7l93.3-75c-6.8-6.7-13.2-13.9-19.2-21.6
	c-74.7-96.5-57.1-235.2,39.4-309.9c90.3-70,217.8-58.9,294.9,22L654,469c-175.8-196-445.3-117.2-445.3-117.2
	C66.1,680.6,226.9,831.6,226.9,831.6z"/>
<path class="st2" d="M643.2,857.6l20.9-40.7l-95.8,34.9l-21-17.3c-81.7,21.3-171.9-6.4-226.9-77.4c-68.9-89-58-214.5,21.7-290.5
	l-1.6,1.5c-193,173.1-115.4,438.5-115.4,438.5c323.7,140.5,472.4-18,472.4-18c8.2-6.3,15.9-12.9,23.3-19.8L643.2,857.6z"/>
<path class="st2" d="M764.4,417.1c-6.4-8.2-13.1-16.1-20.1-23.6l-92.9,74.8c6.7,6.7,13.1,13.8,19.1,21.5
	c74.4,96.1,56.8,234.3-39.3,308.7c-90,69.7-216.9,58.7-293.8-21.9l1.6,1.6c175.1,195.2,443.5,116.8,443.5,116.8
	C924.6,567.5,764.4,417.1,764.4,417.1z"/>
<path class="st3" d="M310.7,338.3c87.4-6.3,221.3,7.6,334.1,120.3c9,8.3,17.5,17.4,25.3,27.4c69,89.2,58.1,214.9-21.7,291.1l1.6-1.5
	C843.3,602,765.6,336,765.6,336C506.9,223.8,359.7,302,310.7,338.3z"/>
</svg>
